# xmcd
#
# Track frame offsets: 
#        150
#        11913
#        35657
#        59157
#        86419
#        108352
#        130863
#
# Disc length: 2425 seconds
#
# Revision: 3
# Processed by: cddbd v1.5.2PL0 Copyright (c) Steve Scherf et al.
# Submitted via: ExactAudioCopy v1.1
#
DISCID=5d097707
DTITLE=Jan Gerfast - Fuckin' Up The Blues
DYEAR=2003
DGENRE=Blues Rock
TTITLE0=Du Gamla Du Fria
TTITLE1=Fuckin' Up The Blues
TTITLE2=Waiting fFor The Sun To Rise
TTITLE3=Halleluja
TTITLE4=G-Town
TTITLE5=Magic Man
TTITLE6=No Guarantees
EXTD=
EXTT0=
EXTT1=
EXTT2=
EXTT3=
EXTT4=
EXTT5=
EXTT6=
PLAYORDER=
